<svg width="50" height="30" fill="none" xmlns="http://www.w3.org/2000/svg"><path d="M10.14 9.6c3.639 0 6.759 1.901 8.578 4.754l1.213-.605-3.986-12.276c-.78.173-1.3.26-2.166.173-1.3-.26-1.82-1.729.173-1.642 1.82.086 3.726.173 5.633.173 2.6 0 1.213.95.087.95-1.127 0-1.907.087-2.6.173l2.686 8.3 13.865-5.015-.693-1.988a.55.55 0 0 1 0-.519c.086-.172.26-.345.433-.345l1.04-.346c.173-.605.693-1.038 1.3-1.038.78 0 1.386.606 1.386 1.384 0 .778-.607 1.383-1.386 1.383-.347 0-.607-.087-.867-.346l-.347.086.607 1.73c.087.086.173.259.26.345l.606 1.816 1.127 3.025c.78-.173 1.646-.346 2.6-.346C45.408 9.426 50 14.008 50 19.713A10.269 10.269 0 0 1 39.689 30C33.97 30 29.29 25.332 29.29 19.713c0-4.236 2.513-7.78 6.153-9.423l-.607-1.901c-4.593 4.236-11.785 11.498-11.872 11.584a.787.787 0 0 1-.607.259l-2.166.086c-.347 5.274-4.68 9.51-10.052 9.51C4.593 29.828 0 25.332 0 19.713 0 14.18 4.506 9.598 10.139 9.598v.001Zm21.056 10.114c0 4.582 3.726 8.386 8.405 8.386 4.593 0 8.406-3.718 8.406-8.386 0-4.581-3.726-8.385-8.405-8.385-.694 0-1.3.086-1.907.26l2.686 7.866c.174.432-.086.95-.52 1.037-.086 0-.173.087-.26.087-.346 0-.693-.173-.78-.519l-2.686-7.867c-2.946 1.21-4.939 4.15-4.939 7.521Zm-11.785-3.89c.347.865.607 1.816.693 2.853h1.3l-1.04-3.285-.953.432Zm-1.646.865-4.073 2.074 4.506-.086c-.087-.692-.26-1.383-.433-1.988Zm16.29-10.461-13.777 4.927.607 1.989 1.3-.692a.828.828 0 0 1 1.04.26c.086-.173.173-.26.26-.346.26-.087.606 0 .692.259l.694 1.643c.086.259 0 .605-.26.691-.087 0-.174.087-.174.087-.086 0-.26 0-.346-.087l.433 1.037c2.686-2.68 6.76-6.656 9.619-9.25l-.087-.518ZM23.83 16.774l-1.126-2.68-1.213.606 1.04 3.285c.346-.26.78-.692 1.3-1.21ZM10.14 27.84c4.333 0 7.799-3.285 8.146-7.521l-8.146.173a.832.832 0 0 1-.78-.605c-.086-.346.087-.778.433-.951l7.193-3.718c-1.473-2.247-3.986-3.717-6.846-3.717-4.506 0-8.232 3.631-8.232 8.213 0 4.581 3.64 8.126 8.232 8.126Z" fill="#000"/></svg>